<svg xmlns="http://www.w3.org/2000/svg" viewBox="0 0 64 64">
  <rect width="64" height="64" rx="16" fill="#007a3d"/>
  <path d="M10 33c0-8 5.6-14 13.4-14h7.2c3.2 0 6 1.7 7.4 4.4C39.4 20.7 42.2 19 45.4 19H53c1.7 0 3 1.3 3 3s-1.3 3-3 3h-7.6c-3.8 0-6.4 3.2-6.4 8s2.6 8 6.4 8H48c3.5 0 6-3 6-7.6 0-1.7 1.3-3 3-3s3 1.3 3 3C60 41.3 55 47 48 47h-2.6c-5 0-9-2.9-11.4-7.4C31.6 44.1 27.6 47 22.6 47H16c-7.1 0-12-5.8-12-14s4.9-14 12-14h7.4c1.7 0 3 1.3 3 3s-1.3 3-3 3H16c-3.8 0-6 3.2-6 8s2.2 8 6 8h6.6c3.8 0 6.4-3.2 6.4-8 0-1.7 1.3-3 3-3h4c1.7 0 3 1.3 3 3 0 4.8 2.6 8 6.4 8" fill="white" opacity=".96"/>
  <path d="M28 31h8" stroke="#9ff3c4" stroke-width="4" stroke-linecap="round"/>
  <circle cx="21" cy="33" r="4" fill="#9ff3c4"/>
  <circle cx="47" cy="33" r="4" fill="#9ff3c4"/>
</svg>
